<svg xmlns="http://www.w3.org/2000/svg" viewBox="0 0 119.607 40"><path d="M110.1 0H7.5a13.552 13.552 0 00-2 .2 6.033 6.033 0 00-1.9.6A6.1 6.1 0 002 2 6.1 6.1 0 00.8 3.6a6.973 6.973 0 00-.6 1.9 15.03 15.03 0 00-.2 2v24.9a13.553 13.553 0 00.2 2 6.033 6.033 0 00.6 1.9A5.229 5.229 0 002 38a6.1 6.1 0 001.6 1.2 6.033 6.033 0 001.9.6 13.553 13.553 0 002 .2h104.6a13.552 13.552 0 002-.2 6.033 6.033 0 001.9-.6 7.074 7.074 0 002.8-2.8 6.033 6.033 0 00.6-1.9 13.554 13.554 0 00.2-2v-25a13.554 13.554 0 00-.2-2 6.033 6.033 0 00-.6-1.9 6.1 6.1 0 00-1.2-1.6A6.1 6.1 0 00116 .8a6.033 6.033 0 00-1.9-.6 13.553 13.553 0 00-2-.2h-2z" fill="#b7b7b7"/><path d="M8.4 39.1h-.9a6.478 6.478 0 01-1.9-.2 8.447 8.447 0 01-1.7-.5 7.1 7.1 0 01-1.4-1 4.508 4.508 0 01-1-1.4 4.244 4.244 0 01-.5-1.7 15.407 15.407 0 01-.2-1.9V7.5A6.82 6.82 0 011 5.6 10.409 10.409 0 011.6 4a7.1 7.1 0 011-1.4 7.1 7.1 0 011.4-1 4.8 4.8 0 011.7-.5A5.845 5.845 0 017.5.9h104.6a6.82 6.82 0 011.9.2 10.926 10.926 0 011.7.5 7.1 7.1 0 011.4 1 4.507 4.507 0 011 1.4 4.939 4.939 0 01.5 1.6 12.253 12.253 0 01.2 1.9v24.9a13.666 13.666 0 01-.2 1.9 8.446 8.446 0 01-.5 1.7 7.1 7.1 0 01-1 1.4 4.508 4.508 0 01-1.4 1 4.244 4.244 0 01-1.7.5c-.6.1-1.3.1-1.9.2H8.4z" fill="#000001"/><path d="M56.603 33.499v-12h1.8v1.5a3.135 3.135 0 012.9-1.6c2.3-.1 3.8 1.8 3.8 4.6s-1.5 4.6-3.8 4.6a2.972 2.972 0 01-2.8-1.6v4.5zm1.8-7.5c0 1.8 1 3 2.4 3 1.5 0 2.4-1.2 2.4-3s-.9-3-2.4-3c-1.4 0-2.401 1.2-2.401 3zm-11.7 7.5v-12h1.8v1.5a3.133 3.133 0 012.9-1.6c2.2-.1 3.8 1.8 3.8 4.6s-1.5 4.6-3.8 4.6a2.973 2.973 0 01-2.8-1.6v4.5zm1.7-7.5c0 1.8 1 3 2.4 3 1.5 0 2.4-1.2 2.4-3s-.9-3-2.4-3c-1.401 0-2.401 1.2-2.401 3zm21.6 1h1.7c.1 1.2 1.3 2 3 2 1.6 0 2.7-.8 2.7-1.9 0-1-.7-1.5-2.3-1.9l-1.6-.4c-2.3-.6-3.3-1.6-3.3-3.3 0-2.1 1.9-3.6 4.5-3.6s4.4 1.5 4.5 3.6h-1.9a2.313 2.313 0 00-.885-1.54 2.314 2.314 0 00-1.715-.46c-1.5 0-2.5.8-2.5 1.9 0 .9.7 1.4 2.3 1.8l1.4.3c2.5.6 3.6 1.6 3.6 3.4 0 2.3-1.9 3.8-4.8 3.8-2.801 0-4.6-1.4-4.7-3.7zm14 3.6c-1.8 0-2.5-.7-2.5-2.4v-5.2h-1.3v-1.5h1.3v-2.1h1.8v2h1.7v1.5h-1.7v5c0 .8.3 1.1 1.1 1.1h.6v1.5a2.78 2.78 0 01-.777.111q-.11 0-.222-.011zm17.2-4.6c0-2.8 1.6-4.7 4.2-4.7 2.5 0 4.1 1.7 4.1 4.5v.6h-6.4v.1a2.431 2.431 0 00.637 1.821 2.422 2.422 0 001.763.779 2.13 2.13 0 002.1-1.3h1.8c-.2 1.6-1.9 2.8-3.9 2.8-2.599 0-4.299-1.8-4.299-4.6zm4.2-3.2a2.326 2.326 0 00-2.3 2.3h4.5a2.124 2.124 0 00-.582-1.644 2.13 2.13 0 00-1.538-.658zm-19.3 3.2c0-2.8 1.7-4.6 4.3-4.6s4.3 1.8 4.3 4.6c0 2.9-1.7 4.6-4.3 4.6-2.7 0-4.299-1.8-4.299-4.6zm1.9 0c0 2 .9 3.1 2.4 3.1s2.4-1.2 2.4-3.1c0-2-.9-3.1-2.4-3.1s-2.399 1.1-2.399 3.1zm8.2 4.6v-9.2h1.8v1.6a2.168 2.168 0 012.2-1.6c.3 0 .5 0 .6.1v1.7a1.722 1.722 0 00-.8-.1 1.842 1.842 0 00-1.44.607 1.85 1.85 0 00-.46 1.493v5.4zm-52.7-.1l-1.2-3.4h-4.7l-1.1 3.4h-2l4.5-12.4h2l4.5 12.4zm-5.4-4.9h3.8l-1.9-5.5h-.1zm-18.8 3.9c-1.7 0-2.2.8-3.6.9-1.4 0-2.5-1.5-3.4-2.8-1.9-2.7-3.3-7.7-1.4-11a5.48 5.48 0 014.5-2.7c1.4 0 2.7 1 3.6 1s2.5-1.2 4.2-1a5.379 5.379 0 014 2.2 5.116 5.116 0 00-2.4 4.2 4.418 4.418 0 002.9 4.3 8.988 8.988 0 01-1.5 3.1c-.9 1.4-1.8 2.7-3.3 2.7s-1.902-.9-3.607-.9zm33.4-14.7a2.053 2.053 0 01-1.578-.668 2.056 2.056 0 01-.522-1.633 2.135 2.135 0 01.513-1.67 2.131 2.131 0 011.587-.73c1.3 0 2 .9 2 2.3v.3h-3.2a1.183 1.183 0 00.308.92 1.185 1.185 0 00.893.38 1.288 1.288 0 001.1-.5h.9a1.839 1.839 0 01-1.761 1.315 1.846 1.846 0 01-.242-.014zm-1.1-2.8h2.3a1.135 1.135 0 00-.3-.833 1.133 1.133 0 00-.8-.367 1.29 1.29 0 00-1.201 1.2zm-9.9 2.8a1.43 1.43 0 01-1.4-1.4c0-.8.6-1.3 1.7-1.3l1.2-.1v-.4c0-.5-.3-.7-.9-.7a.848.848 0 00-.9.5h-.9a1.61 1.61 0 011.8-1.3c1.1 0 1.8.6 1.8 1.5v3.1h-.9v-.6h-.1a1.516 1.516 0 01-1.28.7q-.063.006-.127 0zm.4-2.107c-.6 0-.9.3-.9.6 0 .4.4.6.8.6a.948.948 0 00.819-.153.948.948 0 00.382-.741v-.408zm5.1 2.107c-1.2 0-1.9-.9-1.9-2.4 0-1.4.7-2.3 1.9-2.3a1.6 1.6 0 011.4.8h.1v-2.5h.9v6.3h-.9v-.7h-.1a1.6 1.6 0 01-1.382.8zm-1-2.4c0 1 .5 1.5 1.2 1.5s1.2-.6 1.2-1.5-.5-1.5-1.2-1.5c-.807 0-1.202.6-1.202 1.5zm25.3 2.3v-2.9a.794.794 0 00-.225-.675.8.8 0 00-.676-.225.921.921 0 00-.695.234.923.923 0 00-.305.666v2.8h-.9v-3c0-.5-.3-.8-.9-.8a1 1 0 00-1 1v2.8h-.8v-4.4h.9v.7h.1a1.339 1.339 0 011.3-.8 1.206 1.206 0 011.2.8h.1a1.391 1.391 0 011.4-.8c.9 0 1.4.5 1.4 1.5v3.1zm-12.5 0v-2.7c0-.7-.3-1.1-1-1.1a1 1 0 00-.814.287 1 1 0 00-.287.814v2.6h-.9v-4.4h.9v.7h.1a1.34 1.34 0 011.3-.8 1.5 1.5 0 011.205.469 1.5 1.5 0 01.4 1.23v2.9zm-23.3 0v-6h.9v5.1h2.8v.9zm28 0v-4.5h.9v4.5zm-43.807-4.3a4.463 4.463 0 013.2-1.7 4.763 4.763 0 01-1.1 3.5 4.343 4.343 0 01-3.2 1.6 4.4 4.4 0 011.1-3.4zm43.6-1.5c0-.3.2-.5.6-.5a.56.56 0 01.6.5c0 .3-.2.5-.6.5h-.044a.561.561 0 01-.551-.5z" fill="#fff"/></svg>