<svg xmlns="http://www.w3.org/2000/svg" width="320" height="96" fill="none"><path d="M296.591 0H19.938c-.723 0-1.441.018-2.171.03a31.246 31.246 0 0 0-4.734.418 15.749 15.749 0 0 0-4.49 1.485 15.213 15.213 0 0 0-3.824 2.785 14.79 14.79 0 0 0-2.783 3.83 15.583 15.583 0 0 0-1.477 4.5 30.636 30.636 0 0 0-.423 4.73c-.022.722-.024 1.447-.034 2.171v55.84c.012.734.014 1.444.036 2.178.018 1.586.158 3.169.421 4.733.26 1.567.758 3.084 1.477 4.5a14.667 14.667 0 0 0 2.783 3.814 14.827 14.827 0 0 0 3.824 2.785 15.84 15.84 0 0 0 4.491 1.49c1.565.257 3.148.397 4.734.418.73.016 1.448.026 2.171.026H299.152c.72 0 1.458-.009 2.178-.026 1.583-.02 3.163-.16 4.725-.418a16.089 16.089 0 0 0 4.508-1.49 14.845 14.845 0 0 0 3.821-2.785 15.087 15.087 0 0 0 2.791-3.814 15.589 15.589 0 0 0 1.463-4.5c.263-1.563.41-3.144.438-4.729.009-.734.009-1.444.009-2.178.018-.859.018-1.712.018-2.584v-50.68c0-.865 0-1.723-.018-2.579 0-.725 0-1.451-.009-2.176a31.914 31.914 0 0 0-.438-4.73 15.654 15.654 0 0 0-1.463-4.5 15.276 15.276 0 0 0-6.612-6.614 15.99 15.99 0 0 0-4.508-1.478c-1.562-.26-3.142-.4-4.725-.418-.72-.012-1.458-.025-2.178-.03h-2.561V0Z" fill="#C1C1C2"/><path d="M19.951 93.664c-.72 0-1.422-.01-2.136-.025a29.959 29.959 0 0 1-4.416-.385 13.898 13.898 0 0 1-3.914-1.296 12.758 12.758 0 0 1-3.3-2.4 12.563 12.563 0 0 1-2.411-3.3 13.507 13.507 0 0 1-1.283-3.915 29.347 29.347 0 0 1-.393-4.43c-.015-.5-.035-2.157-.035-2.157V19.949s.021-1.633.035-2.113a29.24 29.24 0 0 1 .391-4.423c.224-1.366.655-2.69 1.279-3.926a12.7 12.7 0 0 1 2.4-3.3 13.146 13.146 0 0 1 3.316-2.42 13.763 13.763 0 0 1 3.906-1.284c1.465-.24 2.946-.37 4.43-.388l2.132-.03h279.189l2.157.03c1.471.018 2.938.147 4.39.385 1.373.233 2.703.67 3.947 1.295a13.215 13.215 0 0 1 5.706 5.717 13.604 13.604 0 0 1 1.264 3.9c.245 1.474.383 2.965.411 4.459.007.669.007 1.388.007 2.1.019.886.019 1.729.019 2.579v50.674c0 .859 0 1.7-.019 2.54 0 .768 0 1.472-.009 2.2a30.033 30.033 0 0 1-.4 4.379 13.542 13.542 0 0 1-1.275 3.945 12.953 12.953 0 0 1-2.4 3.274 12.788 12.788 0 0 1-3.306 2.416 13.854 13.854 0 0 1-3.94 1.3c-1.46.238-2.936.367-4.416.385-.692.016-1.417.025-2.12.025h-2.561l-276.645-.004Z" fill="#000"/><path fill-rule="evenodd" clip-rule="evenodd" d="M220.427 42.82v24.343c-.001 3.551 1.637 5.327 4.912 5.327a11.095 11.095 0 0 0 1.823-.162 8.079 8.079 0 0 0 1.633-.43l-.555-3.38c-.404.12-.82.19-1.241.21a1.734 1.734 0 0 1-1.423-.544 2.962 2.962 0 0 1-.449-1.861V42.438l-4.7.382Zm-47.471 23.141a11.449 11.449 0 0 0 4.7 4.839 14.68 14.68 0 0 0 7.216 1.691 23.346 23.346 0 0 0 5.184-.591 24.563 24.563 0 0 0 4.974-1.7V58.553h-10.978v3.665h6.395v5.594c-.836.302-1.699.526-2.577.668-.909.152-1.829.229-2.75.229a8.85 8.85 0 0 1-5.03-1.337 7.758 7.758 0 0 1-2.921-3.628 13.93 13.93 0 0 1-.927-5.25 12.708 12.708 0 0 1 1.2-5.766 8.367 8.367 0 0 1 3.37-3.618 10.044 10.044 0 0 1 5.051-1.231c2.497.053 4.95.666 7.179 1.794l1.2-3.628a19.742 19.742 0 0 0-4.039-1.441 19.26 19.26 0 0 0-4.553-.525 16.054 16.054 0 0 0-7.3 1.633 12.17 12.17 0 0 0-5.146 4.887 15.53 15.53 0 0 0-1.889 7.915 15.903 15.903 0 0 0 1.641 7.447Zm-65.68-1.256h11.074l2.769 7.4h5.116l-11.094-27.658h-4.6L99.697 72.113h4.868l2.711-7.408Zm9.662-3.761h-8.267l2.942-7.962a109.96 109.96 0 0 0 1.164-3.589 57.045 57.045 0 0 0 1.2 3.627l2.961 7.924Zm11.342-9.437c.101 1.833.152 3.513.152 5.041v24.169l4.716-.4v-8.515c1.332.466 2.732.705 4.143.707a9.82 9.82 0 0 0 5.116-1.317 8.81 8.81 0 0 0 3.446-3.876 14.108 14.108 0 0 0 1.233-6.167 13.16 13.16 0 0 0-1.079-5.7 7.108 7.108 0 0 0-6.654-4.325 8.35 8.35 0 0 0-6.3 3 22.37 22.37 0 0 0-.344-2.617h-4.429Zm13.994 9.909a9.389 9.389 0 0 1-1.442 5.661l.001.002a4.9 4.9 0 0 1-4.191 1.936 8.833 8.833 0 0 1-1.853-.2 7.152 7.152 0 0 1-1.641-.544V57.235a9.547 9.547 0 0 1 2.214-1.738 5.128 5.128 0 0 1 2.54-.648 3.802 3.802 0 0 1 3.179 1.555c.795 1.037 1.193 2.708 1.193 5.012Zm7.83-4.868c0-1.528-.051-3.208-.152-5.041h4.429c.166.865.281 1.739.344 2.617a8.345 8.345 0 0 1 6.3-3 7.11 7.11 0 0 1 6.654 4.325 13.16 13.16 0 0 1 1.079 5.7 14.108 14.108 0 0 1-1.233 6.167 8.808 8.808 0 0 1-3.445 3.876 9.82 9.82 0 0 1-5.117 1.317 12.614 12.614 0 0 1-4.143-.707v8.515l-4.716.4V56.548Zm12.4 10.529a9.396 9.396 0 0 0 1.442-5.661c0-2.304-.398-3.975-1.194-5.012a3.802 3.802 0 0 0-3.179-1.555 5.126 5.126 0 0 0-2.539.648 9.541 9.541 0 0 0-2.214 1.738v11.036c.523.247 1.074.43 1.641.544.609.132 1.23.199 1.853.2a4.901 4.901 0 0 0 4.191-1.936l-.001-.002Zm49.519 5.032c-.177-.9-.286-1.813-.324-2.73a9.096 9.096 0 0 1-2.836 2.2 8.425 8.425 0 0 1-3.942.907 7.432 7.432 0 0 1-3.237-.7 5.397 5.397 0 0 1-2.32-2.1 6.44 6.44 0 0 1-.859-3.427 5.902 5.902 0 0 1 2.158-4.783c1.438-1.19 3.838-1.785 7.2-1.785 1.252 0 2.503.09 3.742.268v-.4c0-1.82-.388-3.102-1.165-3.847a4.636 4.636 0 0 0-3.34-1.117c-1.09.012-2.174.16-3.227.44a17.025 17.025 0 0 0-3.017 1.05l-.745-3.437a18.056 18.056 0 0 1 3.323-1.05 19.241 19.241 0 0 1 4.354-.478c1.554-.042 3.1.235 4.543.812a5.963 5.963 0 0 1 2.921 2.787 11.377 11.377 0 0 1 1.051 5.318v8.191c0 .853.051 2.145.152 3.876l-4.432.005Zm-2.826-3.819a7.526 7.526 0 0 0 2.406-1.757v-3.818a30.318 30.318 0 0 0-3.151-.21c-1.947 0-3.293.315-4.038.944a3.16 3.16 0 0 0-1.117 2.55 2.905 2.905 0 0 0 .811 2.262c.614.515 1.4.777 2.2.735a6.621 6.621 0 0 0 2.892-.706h-.003Zm22.972-1.127V42.82l4.7-.382v23.885a2.955 2.955 0 0 0 .449 1.861 1.732 1.732 0 0 0 1.423.544c.421-.02.837-.09 1.241-.21l.555 3.38c-.528.2-1.075.344-1.633.43-.602.104-1.212.158-1.823.162-3.275 0-4.913-1.776-4.912-5.327Zm14.435-4.754h13.479l-.004-1.26a12.947 12.947 0 0 0-.944-5.02 8.167 8.167 0 0 0-2.9-3.638 8.324 8.324 0 0 0-4.879-1.366 9.375 9.375 0 0 0-4.954 1.3 8.753 8.753 0 0 0-3.351 3.761 13.27 13.27 0 0 0-1.2 5.88 12.7 12.7 0 0 0 1.135 5.614 7.974 7.974 0 0 0 3.389 3.57 11.342 11.342 0 0 0 5.537 1.241 17.545 17.545 0 0 0 7.771-1.68l-1.03-3.227a17.65 17.65 0 0 1-2.912.945c-.973.23-1.97.35-2.97.353-3.895 0-5.95-2.158-6.167-6.473Zm7.638-6.695a5.862 5.862 0 0 1 1.241 3.695h-8.745a6.587 6.587 0 0 1 1.556-3.685 3.98 3.98 0 0 1 2.989-1.24 3.78 3.78 0 0 1 2.959 1.23Zm9.642.965c0-1.133-.051-2.858-.152-5.175h4.41c.077.573.149 1.257.22 2.053.071.796.118 1.442.143 1.938a17.296 17.296 0 0 1 1.613-2.28 6.606 6.606 0 0 1 1.853-1.509 4.921 4.921 0 0 1 2.414-.583 6.707 6.707 0 0 1 1.872.23l-.592 4.085a5.229 5.229 0 0 0-1.528-.209 5.012 5.012 0 0 0-2.9.85 11.66 11.66 0 0 0-2.653 2.8v13.23h-4.7V56.68Zm13.5 23.447c.555.18 1.124.318 1.7.411.728.126 1.465.188 2.204.186a8.747 8.747 0 0 0 4.077-.879 8.092 8.092 0 0 0 2.931-2.692 21.39 21.39 0 0 0 2.31-4.773l7.579-20.869h-4.754l-3.876 11.7a59.246 59.246 0 0 0-1.259 4.468 37.61 37.61 0 0 0-1.2-4.563l-3.82-11.609h-5.059l7.6 20.774-.3.763c-1.046 2.686-2.613 4.03-4.7 4.03a8.188 8.188 0 0 1-1.374-.125 12.645 12.645 0 0 1-1.2-.258l-.859 3.436ZM145.417 28.713a6.024 6.024 0 0 0 2.422 2.548 7.45 7.45 0 0 0 3.758.905 7.955 7.955 0 0 0 3.923-.927 6.322 6.322 0 0 0 2.573-2.642 8.552 8.552 0 0 0 .9-4.038 8.266 8.266 0 0 0-.828-3.789 5.962 5.962 0 0 0-2.4-2.537 7.434 7.434 0 0 0-3.758-.9 8.042 8.042 0 0 0-3.963.932 6.265 6.265 0 0 0-2.572 2.642 8.491 8.491 0 0 0-.894 3.993 8.265 8.265 0 0 0 .839 3.813Zm10.449-1.156a4.25 4.25 0 0 1-1.566 1.934 4.468 4.468 0 0 1-2.548.702 4.334 4.334 0 0 1-2.543-.717 4.26 4.26 0 0 1-1.525-1.955 7.442 7.442 0 0 1-.5-2.8 6.792 6.792 0 0 1 .529-2.717c.33-.793.88-1.474 1.585-1.964a4.408 4.408 0 0 1 2.572-.732 4.346 4.346 0 0 1 2.593.722 4.12 4.12 0 0 1 1.465 1.94c.319.889.475 1.828.459 2.772a7.216 7.216 0 0 1-.521 2.815Zm-28.394-10.026h-3.889l.005 14.436h2.492v-5.564a10.46 10.46 0 0 0 1.894.2 6.002 6.002 0 0 0 2.682-.573 4.315 4.315 0 0 0 1.82-1.645 4.726 4.726 0 0 0 .652-2.507 3.829 3.829 0 0 0-1.456-3.23 6.786 6.786 0 0 0-4.2-1.117Zm2.986 5.515c-.138.352-.351.67-.624.93a3.343 3.343 0 0 1-2.32.724 9.835 9.835 0 0 1-1.436-.15v-5.125h1.355a4.055 4.055 0 0 1 2.389.588 2.21 2.21 0 0 1 .812 1.925c.022.377-.037.755-.176 1.108ZM99.674 17.53h8.5l-.239 2.054h-5.773v3.978h5.443v1.925h-5.443v4.407h6.089l-.21 2.074h-8.365l-.002-14.438Zm14.367 7.069-4.487-7.069h2.832l3.041 5.194 3.2-5.194h2.753l-4.447 6.98 4.815 7.458h-2.872l-3.439-5.683-3.5 5.683h-2.751l4.855-7.369Zm21.545-7.069h2.492v12.3h5.973l-.21 2.134h-8.255V17.531Zm26.193 0h4.517a6.027 6.027 0 0 1 3.744.987 3.364 3.364 0 0 1 1.271 2.821c.015.7-.143 1.394-.459 2.019a4.477 4.477 0 0 1-1.137 1.42 5.023 5.023 0 0 1-1.4.818l4.438 6.371h-2.893l-3.758-5.723h-1.835v5.723h-2.492l.004-14.436Zm3.907 6.829a3.5 3.5 0 0 0 1.607-.354 2.64 2.64 0 0 0 1.087-1c.265-.451.399-.967.388-1.49a1.838 1.838 0 0 0-.688-1.591 3.368 3.368 0 0 0-2-.5h-1.8v4.935h1.406Zm17.545-6.829h-8.5l-.005 14.438h8.365l.211-2.074h-6.083v-4.407h5.443v-1.925h-5.443v-3.978h5.773l.239-2.054Zm9.256 0h2.492v14.437h-2.492V17.531Zm4.606 2.079h4.477l.005 12.358h2.492V19.61h4.256l.231-2.083h-11.241l-.22 2.083Zm22.272 11.651a6.024 6.024 0 0 1-2.422-2.548 8.265 8.265 0 0 1-.839-3.813 8.491 8.491 0 0 1 .894-3.993 6.265 6.265 0 0 1 2.572-2.642 8.041 8.041 0 0 1 3.962-.932 7.434 7.434 0 0 1 3.758.9 5.956 5.956 0 0 1 2.4 2.537 8.279 8.279 0 0 1 .828 3.789 8.552 8.552 0 0 1-.9 4.038 6.323 6.323 0 0 1-2.573 2.642 7.956 7.956 0 0 1-3.923.927 7.448 7.448 0 0 1-3.757-.905Zm6.461-1.77a4.258 4.258 0 0 0 1.566-1.934 7.225 7.225 0 0 0 .518-2.817 7.813 7.813 0 0 0-.459-2.772 4.12 4.12 0 0 0-1.465-1.94 4.346 4.346 0 0 0-2.593-.722 4.408 4.408 0 0 0-2.573.732 4.485 4.485 0 0 0-1.584 1.964 6.792 6.792 0 0 0-.529 2.717 7.443 7.443 0 0 0 .5 2.8 4.26 4.26 0 0 0 1.525 1.955 4.334 4.334 0 0 0 2.543.717 4.467 4.467 0 0 0 2.551-.7Zm10.336-11.96h-2.857l-.005 14.438h2.313v-7.937a62.499 62.499 0 0 0-.11-3.43l7.248 11.366h2.772V17.531h-2.313v8.245c0 .898.03 1.879.09 2.942l-7.138-11.187Z" fill="#fff"/><path d="M38.042 17.416c-12.545 0-17.134 4.588-17.134 17.134v26.632c0 12.545 4.589 17.134 17.134 17.134h26.623c12.543 0 17.143-4.589 17.143-17.134V34.55c0-12.546-4.589-17.134-17.134-17.134H38.042Z" fill="#C00020"/><path d="M32.968 47.87h1.615v7.963h-1.615v-3.234H29.32v3.233h-1.616V47.87h1.616v3.212h3.648V47.87Zm9.1 4.559c0 1.294-.643 1.986-1.81 1.986s-1.82-.711-1.82-2.041v-4.5h-1.616v4.553c0 2.239 1.244 3.524 3.414 3.524 2.19 0 3.447-1.308 3.447-3.59v-4.492h-1.615v4.56Zm18.67.917L58.93 47.87h-1.319l-1.808 5.476-1.759-5.472h-1.718l2.775 7.959h1.337l1.811-5.228 1.81 5.228h1.349l2.768-7.96h-1.675l-1.763 5.473Zm6.334-.94h2.938v-1.45h-2.934v-1.63h4.265v-1.451h-5.865v7.952h6.013v-1.45h-4.413l-.004-1.971Zm6.345 3.417h1.594V47.87h-1.594v7.952ZM46.876 54.17l-.725 1.658h-1.649l3.507-7.958h1.426l3.494 7.958h-1.695l-.715-1.658h-3.643Zm.6-1.436h2.442l-1.225-2.85-1.217 2.85ZM51.358 37.733a10.148 10.148 0 0 1-10.137-10.137h1.432a8.705 8.705 0 1 0 17.41 0h1.432a10.148 10.148 0 0 1-10.137 10.137Z" fill="#fff"/></svg>