<svg xmlns="http://www.w3.org/2000/svg" viewBox="0 0 135.002 40"><defs><linearGradient id="a" x1=".915" y1="15.312" x2="-.376" y2="14.641" gradientUnits="objectBoundingBox"><stop offset="0" stop-color="#00a0ff"/><stop offset=".007" stop-color="#00a1ff"/><stop offset=".26" stop-color="#00beff"/><stop offset=".512" stop-color="#00d2ff"/><stop offset=".76" stop-color="#00dfff"/><stop offset="1" stop-color="#00e3ff"/></linearGradient><linearGradient id="b" x1="1.077" y1="42.731" x2="-1.307" y2="42.731" gradientUnits="objectBoundingBox"><stop offset="0" stop-color="#ffe000"/><stop offset=".409" stop-color="#ffbd00"/><stop offset=".775" stop-color="orange"/><stop offset="1" stop-color="#ff9c00"/></linearGradient><linearGradient id="c" x1=".864" y1="27.677" x2="-.499" y2="25.911" gradientUnits="objectBoundingBox"><stop offset="0" stop-color="#ff3a44"/><stop offset="1" stop-color="#c31162"/></linearGradient><linearGradient id="d" x1="-.186" y1="30.531" x2=".423" y2="29.738" gradientUnits="objectBoundingBox"><stop offset="0" stop-color="#32a071"/><stop offset=".068" stop-color="#2da771"/><stop offset=".476" stop-color="#15cf74"/><stop offset=".801" stop-color="#06e775"/><stop offset="1" stop-color="#00f076"/></linearGradient></defs><path d="M130 40H5a4.952 4.952 0 01-5-5V5a4.952 4.952 0 015-5h125a4.952 4.952 0 015 5v30a5.014 5.014 0 01-5 5z"/><path d="M130 .8a4.225 4.225 0 014.2 4.2v30a4.225 4.225 0 01-4.2 4.2H5A4.225 4.225 0 01.8 35V5A4.225 4.225 0 015 .8h125m0-.8H5a4.952 4.952 0 00-5 5v30a4.952 4.952 0 005 5h125a4.952 4.952 0 005-5V5a5.014 5.014 0 00-5-5z" fill="#a6a6a6"/><path d="M20.4 17.5a1.979 1.979 0 00-.5 1.4V41a1.979 1.979 0 00.5 1.4l.1.1 12.4-12.4v-.2z" transform="translate(-10 -10)" fill="url(#a)"/><path d="M37 34.3l-4.1-4.1v-.3l4.1-4.1.1.1 4.9 2.8c1.4.8 1.4 2.1 0 2.9l-5 2.7z" transform="translate(-10 -10)" fill="url(#b)"/><path d="M37.1 34.2L32.9 30 20.4 42.5c.5.5 1.2.5 2.1.1l14.6-8.4" transform="translate(-10 -10)" fill="url(#c)"/><path d="M37.1 25.8l-14.6-8.3a1.617 1.617 0 00-2.1.1L32.9 30z" transform="translate(-10 -10)" fill="url(#d)"/><path d="M73.599 31.5l1.6-.7a2.274 2.274 0 002.641 1.442 2.274 2.274 0 001.759-2.442v-.6h-.1a2.873 2.873 0 01-2.2 1 4.146 4.146 0 01-2.921-1.248A4.143 4.143 0 0173.199 26a4.3 4.3 0 014.1-4.3 3.294 3.294 0 012.3 1V22h1.8v7.6c0 3.1-1.8 4.4-4 4.4h-.009a4.125 4.125 0 01-3.791-2.5zm1.4-5.5a2.609 2.609 0 002.4 2.6 2.4 2.4 0 001.705-.809A2.4 2.4 0 0079.699 26a2.4 2.4 0 00-.6-1.791 2.4 2.4 0 00-1.7-.809 2.609 2.609 0 00-2.4 2.6zm43.7 7.8l1.9-4.2-3.3-7.6h2l2.2 5.4h.1l2.1-5.4h2l-5.1 11.8zm-50.6-3.4a4.265 4.265 0 01-3.049-1.25 4.265 4.265 0 01-1.251-3.05 4.2 4.2 0 011.231-3.069 4.209 4.209 0 013.069-1.231 4.153 4.153 0 013.088 1.212 4.147 4.147 0 011.212 3.088 4.211 4.211 0 01-1.231 3.069 4.2 4.2 0 01-2.969 1.231zm-2.4-4.4a2.609 2.609 0 002.4 2.6 2.484 2.484 0 001.745-.8 2.481 2.481 0 00.655-1.8 2.421 2.421 0 00-.637-1.82 2.423 2.423 0 00-1.763-.78 2.609 2.609 0 00-2.4 2.6zm-6.893 4.4a4.267 4.267 0 01-3.05-1.25 4.269 4.269 0 01-1.257-3.05 4.211 4.211 0 011.231-3.069 4.209 4.209 0 013.069-1.231 4.153 4.153 0 013.089 1.211 4.149 4.149 0 011.211 3.089 4.207 4.207 0 01-1.231 3.069 4.2 4.2 0 01-2.969 1.231zm-2.4-4.4a2.608 2.608 0 002.4 2.6 2.484 2.484 0 001.744-.8 2.479 2.479 0 00.649-1.8 2.424 2.424 0 00-.636-1.82 2.426 2.426 0 00-1.763-.78 2.608 2.608 0 00-2.401 2.6zm33.3 4.4a4.181 4.181 0 01-3.01-1.26 4.19 4.19 0 01-1.197-3.04 4.027 4.027 0 011.07-3.015 4.027 4.027 0 012.93-1.285 3.886 3.886 0 013.6 2.7l.206.5-5.7 2.4a2.17 2.17 0 002.1 1.3 2.438 2.438 0 002.1-1.2l1.4 1a4.1 4.1 0 01-3.458 1.9zm-.2-7a2.426 2.426 0 00-2.205 2.5l3.805-1.6a1.769 1.769 0 00-1.542-.9zm-41.7 6.9a6.6 6.6 0 01-6.6-6.6 6.6 6.6 0 016.6-6.6 6.41 6.41 0 014.5 1.8l-1.3 1.3a4.963 4.963 0 00-3.3-1.3 4.72 4.72 0 00-3.354 1.417 4.719 4.719 0 00-1.353 3.383 4.658 4.658 0 001.327 3.4 4.655 4.655 0 003.373 1.4 4.427 4.427 0 003.3-1.3 3.78 3.78 0 001-2.3h-4.3v-1.8h6.2a3.745 3.745 0 01.1 1.1 6.02 6.02 0 01-1.6 4.2 5.759 5.759 0 01-4.282 1.909q-.158.001-.318-.009zm63.164-.846a2.93 2.93 0 01-.964-2.049c0-1.8 1.8-2.8 3.6-2.8a3.972 3.972 0 011.9.5V25a1.881 1.881 0 00-2-1.6 1.768 1.768 0 00-1.7.9l-1.7-.7a3.361 3.361 0 013.3-1.9 3.784 3.784 0 014 3.506v4.8h-1.8v-1h-.1a2.813 2.813 0 01-2.4 1.2q-.086.005-.172.005a2.93 2.93 0 01-1.971-.756zm.736-1.95c0 .8.9 1.1 1.5 1.1a2.324 2.324 0 002.2-1.991 3.856 3.856 0 00-1.7-.4c-.907-.013-2.007.287-2.007 1.287zm-4.8 2.5V17.5h1.9V30zm-9.6 0V17.5h4.5a3.9 3.9 0 013.538 1.894 3.906 3.906 0 010 4.013 3.906 3.906 0 01-3.545 1.893h-2.6V30zm1.9-6.5h2.7V23.5a2.288 2.288 0 002.2-2.2 2.2 2.2 0 00-2.2-2.1h-2.707zM82.599 30V17.5h1.9V30zm-39.6-16.9a1.5 1.5 0 01-1.1-.4 2.561 2.561 0 01-.7-1l.7-.3c.2.6.5.9 1.1.9a.984.984 0 00.8-.3 1.221 1.221 0 00.3-.9V7h.8v4.1a2.068 2.068 0 01-.5 1.5 1.741 1.741 0 01-1.23.509 1.74 1.74 0 01-.17-.009zm24.2-.1V7h2.2a1.707 1.707 0 011.7 1.7 2.35 2.35 0 01-.2.8 1.021 1.021 0 01-.6.5 1.8 1.8 0 01.7.5 1.223 1.223 0 01.3.9 1.655 1.655 0 01-.5 1.2 2.847 2.847 0 01-1.3.4zm.8-.7h1.6a1.026 1.026 0 001-1 1.083 1.083 0 00-.3-.7.91.91 0 00-.7-.3h-1.6zm0-2.7h1.4a.91.91 0 00.7-.3.749.749 0 00.3-.6.751.751 0 00-.3-.6.91.91 0 00-.7-.3h-1.4zm9.1 3.4V7h.8v6zm-4.7 0V7h3.5v.7h-2.7v1.9h2.5v.7h-2.5v1.9h2.7v.8zm-10 0h.1zm-.7 0V7.7h-1.7V7h4.1v.7h-1.7V13zm-6.4 0v-.8l3.2-4.5h-3.1V7h4v.8l-3.2 4.5h3.2v.7zm-3.1 0V7.7h-1.7V7h4.1v.7h-1.6V13zm-6 0V7h3.5v.7h-2.7v1.9h2.5v.7h-2.5v1.9h2.7v.8z" fill="#fff"/></svg>